HIERARCHY
ROOT SpineBase
{
  OFFSET 0.000000 0.000000 0.000000
  CHANNELS 6 Xposition Yposition Zposition Zrotation Xrotation Yrotation
  JOINT SpineMid
  {
    OFFSET 0.000000 27.250178 0.000000
    CHANNELS 3 Zrotation Xrotation Yrotation
    JOINT SpineShoulder
    {
      OFFSET -0.110781 20.215844 -0.559352
      CHANNELS 3 Zrotation Xrotation Yrotation
      JOINT Neck
      {
        OFFSET -0.073865 6.683236 -0.450265
        CHANNELS 3 Zrotation Xrotation Yrotation
        JOINT Head
        {
          OFFSET -3.113650 12.818562 0.267337
          CHANNELS 3 Zrotation Xrotation Yrotation
          End Site
          {
            OFFSET 0 0 0
          }
        }
      }
      JOINT ShoulderLeft
      {
        OFFSET -11.366052 -2.046344 10.597668
        CHANNELS 3 Zrotation Xrotation Yrotation
        JOINT ElbowLeft
        {
          OFFSET -0.679884 -21.816166 6.432091
          CHANNELS 3 Zrotation Xrotation Yrotation
          JOINT WristLeft
          {
            OFFSET -0.467058 -23.187772 -1.471886
            CHANNELS 3 Zrotation Xrotation Yrotation
            JOINT HandLeft
            {
              OFFSET -0.056047 -8.546005 -0.403967
              CHANNELS 3 Zrotation Xrotation Yrotation
              JOINT HandTipLeft
              {
                OFFSET -0.377624 -1.962805 -1.358543
                CHANNELS 3 Zrotation Xrotation Yrotation
                End Site
                {
                  OFFSET 0 0 0
                }
              }
              JOINT ThumbLeft
              {
                OFFSET -0.609657 0.886613 -0.668203
                CHANNELS 3 Zrotation Xrotation Yrotation
                End Site
                {
                  OFFSET 0 0 0
                }
              }
            }
          }
        }
      }
      JOINT ShoulderRight
      {
        OFFSET 8.454092 -2.905184 -12.593966
        CHANNELS 3 Zrotation Xrotation Yrotation
        JOINT ElbowRight
        {
          OFFSET -0.889491 -17.449315 -10.539131
          CHANNELS 3 Zrotation Xrotation Yrotation
          JOINT WristRight
          {
            OFFSET -17.940699 8.257262 -8.455845
            CHANNELS 3 Zrotation Xrotation Yrotation
            JOINT HandRight
            {
              OFFSET -4.797271 2.346594 -0.831991
              CHANNELS 3 Zrotation Xrotation Yrotation
              JOINT HandTipRight
              {
                OFFSET -5.779620 4.175339 -1.684721
                CHANNELS 3 Zrotation Xrotation Yrotation
                End Site
                {
                  OFFSET 0 0 0
                }
              }
              JOINT ThumbRight
              {
                OFFSET -2.930154 -2.701730 -0.306058
                CHANNELS 3 Zrotation Xrotation Yrotation
                End Site
                {
                  OFFSET 0 0 0
                }
              }
            }
          }
        }
      }
    }
  }
  JOINT HipLeft
  {
    OFFSET -4.410849 -0.097400 1.831803
    CHANNELS 3 Zrotation Xrotation Yrotation
    JOINT KneeLeft
    {
      OFFSET 4.231818 -27.080866 3.432661
      CHANNELS 3 Zrotation Xrotation Yrotation
      JOINT AnkleLeft
      {
        OFFSET 11.155175 -37.138784 8.048000
        CHANNELS 3 Zrotation Xrotation Yrotation
        JOINT FootLeft
        {
          OFFSET -1.344832 -7.103111 -3.344755
          CHANNELS 3 Zrotation Xrotation Yrotation
          End Site
          {
            OFFSET 0 0 0
          }
        }
      }
    }
  }
  JOINT HipRight
  {
    OFFSET 4.076833 1.577323 -8.166637
    CHANNELS 3 Zrotation Xrotation Yrotation
    JOINT KneeRight
    {
      OFFSET 8.786975 -31.066802 5.186133
      CHANNELS 3 Zrotation Xrotation Yrotation
      JOINT AnkleRight
      {
        OFFSET 4.482185 -33.936109 6.485018
        CHANNELS 3 Zrotation Xrotation Yrotation
        JOINT FootRight
        {
          OFFSET -4.432157 -5.916804 -3.376987
          CHANNELS 3 Zrotation Xrotation Yrotation
          End Site
          {
            OFFSET 0 0 0
          }
        }
      }
    }
  }
}
MOTION
Frames: 5
Frame Time: 0.033333
18.313608 71.628882 344.048273 0.268362 1.668783 50.525644 -0.128999 -0.041569 -50.515529 0.105878 -0.039622 0.025531 -0.325355 -1.502959 -0.042763 0.000000 0.000000 0.000000 -0.325355 -1.502959 -0.042763 -0.000000 0.000000 0.000000 -4.005583 11.726110 0.521088 15.176935 -42.242242 5.636229 0.000000 0.000000 0.000000 0.000000 0.000000 0.000000 -5.111757 4.736635 2.580536 1.997161 -4.651947 -1.421077 1.621004 -3.971363 -6.056048 -1.006504 0.836389 2.381132 0.000000 0.000000 0.000000 0.000000 0.000000 0.000000 -5.955872 -3.214779 -51.604110 3.292834 4.392284 0.984898 -2.720612 21.400987 -3.664552 0.000000 0.000000 0.000000 -3.394665 -3.944605 -51.399800 -0.058916 3.329125 0.948501 -9.569117 18.308215 -6.723504 0.000000 0.000000 0.000000
18.332904 71.681922 344.026213 0.380240 1.611348 50.615687 -0.165672 -0.073967 -50.604166 0.175072 -0.073195 0.034735 -0.508583 -1.362766 -0.055334 0.000000 0.000000 0.000000 -0.508583 -1.362766 -0.055334 -0.000000 0.000000 0.000000 -3.807011 11.741511 0.491843 15.053932 -43.363852 6.121722 0.000000 0.000000 0.000000 0.000000 0.000000 0.000000 -5.657104 5.291457 2.794131 2.208691 -5.069237 -1.690142 1.000987 -3.769769 -5.914278 -0.780275 -1.162224 -0.584610 0.000000 0.000000 0.000000 0.000000 0.000000 0.000000 -6.102346 -3.047932 -51.709800 3.310417 4.605607 1.030618 -1.845239 22.907964 -4.453371 0.000000 0.000000 0.000000 -3.201789 -3.724976 -51.398543 -0.424773 2.994845 0.822402 -9.569719 18.949661 -6.764763 0.000000 0.000000 0.000000
18.364841 71.767276 344.041705 0.521640 1.565017 50.728733 -0.144874 -0.083518 -50.714219 0.237068 -0.077475 0.045986 -1.770578 -1.370221 -0.087278 0.000000 0.000000 0.000000 -0.733211 -1.321754 -0.072414 -0.000000 0.000000 0.000000 -3.546455 11.156166 0.438653 14.222141 -42.249578 5.759179 0.000000 0.000000 0.000000 0.000000 0.000000 0.000000 -5.621712 4.751150 2.633428 1.757745 -4.600593 -2.181240 0.734303 -2.415718 -3.059076 -1.804359 -3.481542 -5.310165 0.000000 0.000000 0.000000 0.000000 0.000000 0.000000 -6.248573 -2.770485 -51.826520 3.458889 4.658286 1.058992 -2.239555 20.443404 -3.829318 0.000000 0.000000 0.000000 -3.039222 -3.423301 -51.418228 -1.172512 1.071697 0.422202 -9.815189 22.267497 -6.562365 0.000000 0.000000 0.000000
18.400031 71.884552 344.040144 0.678129 1.535662 50.897965 -0.136228 -0.109360 -50.879966 0.284527 -0.092357 0.056817 -2.386707 -1.251260 -0.087743 0.000000 0.000000 0.000000 -0.963447 -1.267364 -0.089517 -0.000000 0.000000 0.000000 -3.019185 12.149403 0.382163 13.122355 -45.990062 7.435680 0.000000 0.000000 0.000000 0.000000 0.000000 0.000000 -5.258762 4.239062 2.270973 1.028557 -4.059569 -2.266065 0.482390 -1.816101 -1.764529 -3.436513 -4.792194 -8.576922 0.000000 0.000000 0.000000 0.000000 0.000000 0.000000 -6.411959 -2.475757 -51.996512 3.597989 4.702550 1.085704 0.170529 18.584070 -4.985171 0.000000 0.000000 0.000000 -2.908049 -3.085211 -51.496271 -1.995549 -0.963392 -0.036683 -10.548273 26.625417 -6.400210 0.000000 0.000000 0.000000
18.453090 72.076803 344.006591 0.834288 1.536945 51.106424 -0.148621 -0.162293 -51.084564 0.303001 -0.139672 0.065623 -2.899226 -1.016952 -0.062566 0.000000 0.000000 0.000000 -1.172305 -1.177914 -0.103994 -0.000000 0.000000 0.000000 -2.630963 12.704715 0.331871 13.558411 -48.615249 8.512932 0.000000 0.000000 0.000000 0.000000 0.000000 0.000000 -5.071739 4.048565 2.028457 -0.013934 -3.237658 -1.686931 0.166719 -2.056447 -2.049421 -4.391855 -4.574298 -9.195538 0.000000 0.000000 0.000000 0.000000 0.000000 0.000000 -6.644248 -2.182625 -52.216316 3.749851 4.778059 1.116212 4.071113 15.547579 -6.719100 0.000000 0.000000 0.000000 -2.779852 -2.677941 -51.603789 -2.192101 -1.664189 -0.232564 -12.014364 30.304524 -6.806021 0.000000 0.000000 0.000000
